<mxfile host="app.diagrams.net" modified="2023-06-27T21:08:11.667Z" agent="Mozilla/5.0 (Windows NT 10.0; Win64; x64) AppleWebKit/537.36 (KHTML, like Gecko) Chrome/114.0.0.0 Safari/537.36" etag="HX1fRA4HBqC6f3-wxLFE" version="21.3.8" type="device">
  <diagram name="Σελίδα-1" id="UVpdRv9DBAHebIsiaZhw">
    <mxGraphModel dx="792" dy="1106" grid="1" gridSize="10" guides="1" tooltips="1" connect="1" arrows="1" fold="1" page="1" pageScale="1" pageWidth="1169" pageHeight="827" math="0" shadow="0">
      <root>
        <mxCell id="0" />
        <mxCell id="1" parent="0" />
        <mxCell id="hIc6Sv9JVESEtFx4kycC-1" value="split into RGB channels" style="rounded=0;whiteSpace=wrap;html=1;" vertex="1" parent="1">
          <mxGeometry x="40" y="60" width="120" height="60" as="geometry" />
        </mxCell>
        <mxCell id="hIc6Sv9JVESEtFx4kycC-2" value="select ROIs" style="rounded=0;whiteSpace=wrap;html=1;" vertex="1" parent="1">
          <mxGeometry x="40" y="150" width="120" height="60" as="geometry" />
        </mxCell>
        <mxCell id="hIc6Sv9JVESEtFx4kycC-3" value="calculate mean intensity" style="rounded=0;whiteSpace=wrap;html=1;" vertex="1" parent="1">
          <mxGeometry x="40" y="240" width="120" height="60" as="geometry" />
        </mxCell>
        <mxCell id="hIc6Sv9JVESEtFx4kycC-4" value="convert RGB to absorbance with Beer-Lambert formula" style="rounded=0;whiteSpace=wrap;html=1;" vertex="1" parent="1">
          <mxGeometry x="40" y="330" width="120" height="60" as="geometry" />
        </mxCell>
        <mxCell id="hIc6Sv9JVESEtFx4kycC-5" value="normalize absorbance" style="rounded=0;whiteSpace=wrap;html=1;" vertex="1" parent="1">
          <mxGeometry x="40" y="420" width="120" height="60" as="geometry" />
        </mxCell>
        <mxCell id="hIc6Sv9JVESEtFx4kycC-6" value="get the stain matrix and invert it" style="rounded=0;whiteSpace=wrap;html=1;" vertex="1" parent="1">
          <mxGeometry x="40" y="510" width="120" height="60" as="geometry" />
        </mxCell>
        <mxCell id="hIc6Sv9JVESEtFx4kycC-7" value="multiply inverse matrix with absorbance image to get concentration image" style="rounded=0;whiteSpace=wrap;html=1;" vertex="1" parent="1">
          <mxGeometry x="40" y="600" width="120" height="70" as="geometry" />
        </mxCell>
        <mxCell id="hIc6Sv9JVESEtFx4kycC-8" value="convert concentration image back to RGB" style="rounded=0;whiteSpace=wrap;html=1;" vertex="1" parent="1">
          <mxGeometry x="40" y="700" width="120" height="60" as="geometry" />
        </mxCell>
      </root>
    </mxGraphModel>
  </diagram>
</mxfile>
